<svg xmlns="http://www.w3.org/2000/svg" width="1200" height="630" viewBox="0 0 1200 630" role="img" aria-labelledby="title desc">
  <title id="title">Chiffreur IA</title>
  <desc id="desc">Chiffrez plus d'appels d'offres. Moins de préparation manuelle.</desc>
  <defs>
    <linearGradient id="background" x1="0" y1="0" x2="1" y2="0">
      <stop offset="0" stop-color="#fbfaf6"/>
      <stop offset="0.52" stop-color="#fbfaf6"/>
      <stop offset="1" stop-color="#e4eef0"/>
    </linearGradient>
    <radialGradient id="rightGlow" cx="76%" cy="50%" r="52%">
      <stop offset="0" stop-color="#eef6f7" stop-opacity="0.96"/>
      <stop offset="0.58" stop-color="#eef6f7" stop-opacity="0.34"/>
      <stop offset="1" stop-color="#eef6f7" stop-opacity="0"/>
    </radialGradient>
    <linearGradient id="bar" x1="0" y1="0" x2="1" y2="0">
      <stop offset="0" stop-color="#1f5f8f"/>
      <stop offset="1" stop-color="#4a8f64"/>
    </linearGradient>
    <pattern id="grid" width="52" height="52" patternUnits="userSpaceOnUse">
      <path d="M52 0H0v52" fill="none" stroke="#d5dddf" stroke-width="1" opacity="0.52"/>
    </pattern>
  </defs>

  <rect width="1200" height="630" fill="url(#background)"/>
  <rect width="1200" height="630" fill="url(#rightGlow)"/>
  <rect width="1200" height="630" fill="url(#grid)" opacity="0.62"/>
  <path d="M0 0h1200v630H0z" fill="none" stroke="#d9dedc" stroke-width="2"/>

  <g font-family="Arial, Helvetica, sans-serif">
    <g transform="translate(82 72)">
      <rect x="0" y="0" width="468" height="46" rx="23" fill="#ffffff" stroke="#b8c9d4"/>
      <text x="20" y="30" fill="#16476b" font-size="22" font-weight="700">Workflow IA pour CVC &amp; lots techniques</text>

      <text x="0" y="218" fill="#111820" font-size="116" font-weight="900">Chiffreur IA</text>

      <text x="0" y="324" fill="#17202a" font-size="52" font-weight="700">Chiffrez plus d'appels d'offres.</text>
      <text x="0" y="384" fill="#17202a" font-size="52" font-weight="700">Moins de préparation manuelle.</text>

      <rect x="0" y="444" width="360" height="7" rx="3.5" fill="url(#bar)"/>

      <g transform="translate(0 470)" fill="#ffffff" stroke="#cbd7dc" font-size="18" font-weight="700">
        <rect x="0" y="0" width="146" height="41" rx="8"/>
        <rect x="158" y="0" width="156" height="41" rx="8"/>
        <rect x="326" y="0" width="151" height="41" rx="8"/>
        <text x="14" y="27" fill="#52616b">DCE analysés</text>
        <text x="172" y="27" fill="#52616b">Prix retrouvés</text>
        <text x="340" y="27" fill="#52616b">Sources prêtes</text>
      </g>
    </g>

    <g transform="translate(878 82)">
      <circle cx="13" cy="13" r="13" fill="#cfe3d5"/>
      <circle cx="13" cy="13" r="7" fill="#4a8f64"/>
      <text x="34" y="21" fill="#28533b" font-size="22" font-weight="700">clair · rapide · vérifiable</text>
    </g>
  </g>

  <path d="M1114 456v88c0 21-8 39-23 53s-34 21-56 21H990" fill="none" stroke="#b7cbd8" stroke-width="8"/>
</svg>
